<svg width="40" height="40" viewBox="0 0 40 40" fill="none" xmlns="http://www.w3.org/2000/svg">
<g id="&#208;&#186;&#208;&#189;&#208;&#190;&#208;&#191;&#208;&#186;&#208;&#176; &#208;&#189;&#208;&#176;&#208;&#183;&#208;&#176;&#208;&#180;">
<circle id="Ellipse 30" cx="20" cy="20" r="19.5" stroke="white"/>
<path id="Vector" d="M24.6567 12.3131C24.5486 12.2139 24.4202 12.1351 24.2788 12.0814C24.1374 12.0277 23.9858 12 23.8328 12C23.6797 12 23.5281 12.0277 23.3867 12.0814C23.2453 12.1351 23.1169 12.2139 23.0088 12.3131L15.2723 19.3988C15.186 19.4776 15.1175 19.5713 15.0708 19.6745C15.024 19.7776 15 19.8882 15 19.9999C15 20.1116 15.024 20.2221 15.0708 20.3253C15.1175 20.4284 15.186 20.5221 15.2723 20.601L23.0088 27.6866C23.465 28.1045 24.2005 28.1045 24.6567 27.6866C25.1129 27.2688 25.1129 26.5952 24.6567 26.1774L17.9163 19.9956L24.666 13.8138C25.1129 13.4045 25.1129 12.7224 24.6567 12.3131Z" fill="white"/>
</g>
</svg>
