<svg width="40" height="40" viewBox="0 0 40 40" fill="none" xmlns="http://www.w3.org/2000/svg">
<circle cx="20" cy="20" r="19.5" stroke="white"/>
<g clip-path="url(#clip0_404_309)">
<path d="M22.1422 27.0517H20.8157V14.8947H26.4061L24.0381 18.6523C23.918 18.8428 23.9752 19.0947 24.1657 19.2147C24.2333 19.2573 24.3084 19.2776 24.3828 19.2776C24.5182 19.2776 24.6506 19.2101 24.7282 19.0872L26.7819 15.8284L28.8355 19.0872C28.9556 19.2777 29.2075 19.3349 29.398 19.2147C29.5885 19.0947 29.6456 18.8428 29.5255 18.6523L27.1576 14.8947H27.1875C27.5366 14.8947 27.8196 14.6117 27.8196 14.2626C27.8196 13.9136 27.5366 13.6305 27.1875 13.6305H22.5373C22.2746 13.2485 21.8871 12.9593 21.4333 12.822C21.3685 12.0872 20.7517 11.5109 20 11.5109C19.2483 11.5109 18.6316 12.0872 18.5667 12.822C18.113 12.9593 17.7254 13.2485 17.4628 13.6305H12.8126C12.4634 13.6305 12.1804 13.9136 12.1804 14.2626C12.1804 14.6117 12.4634 14.8947 12.8126 14.8947H12.8425L10.4745 18.6523C10.3544 18.8428 10.4115 19.0947 10.602 19.2147C10.6696 19.2573 10.7448 19.2776 10.8191 19.2776C10.9545 19.2776 11.087 19.2101 11.1645 19.0872L13.2182 15.8284L15.2719 19.0872C15.392 19.2777 15.6438 19.3349 15.8343 19.2147C16.0249 19.0947 16.082 18.8428 15.962 18.6523L13.594 14.8947H19.1844V27.0516H17.858C17.0641 27.0516 16.4205 27.6952 16.4205 28.4891H23.5796C23.5796 27.6952 22.936 27.0517 22.1422 27.0517Z" fill="white"/>
<path d="M13.2182 22.7968C11.6814 22.7968 10.4226 21.5812 10.353 20.0613H16.0833C16.0138 21.5812 14.7549 22.7968 13.2182 22.7968Z" stroke="white" stroke-width="0.7"/>
<path d="M26.7819 22.7968C25.2451 22.7968 23.9863 21.5812 23.9167 20.0613H29.647C29.5775 21.5812 28.3187 22.7968 26.7819 22.7968Z" stroke="white" stroke-width="0.7"/>
</g>
<defs>
<clipPath id="clip0_404_309">
<rect width="20" height="20" fill="white" transform="translate(10 10)"/>
</clipPath>
</defs>
</svg>
