<svg width="70" height="70" viewBox="0 0 70 70" fill="none" xmlns="http://www.w3.org/2000/svg">
<circle opacity="0.2" cx="35" cy="35" r="34.5" stroke="white"/>
<path d="M54.8798 52.1248L41.8949 39.1399C43.9099 36.5349 44.9999 33.3499 44.9999 29.9999C44.9999 25.99 43.4349 22.23 40.6049 19.395C37.7749 16.56 34.0049 15 29.9999 15C25.995 15 22.225 16.565 19.395 19.395C16.56 22.225 15 25.99 15 29.9999C15 34.0049 16.565 37.7749 19.395 40.6049C22.225 43.4399 25.99 44.9999 29.9999 44.9999C33.3499 44.9999 36.5299 43.9099 39.1349 41.8999L52.1198 54.8798C52.1579 54.9179 52.2031 54.9481 52.2529 54.9688C52.3026 54.9894 52.356 55 52.4098 55C52.4637 55 52.517 54.9894 52.5668 54.9688C52.6166 54.9481 52.6618 54.9179 52.6998 54.8798L54.8798 52.7048C54.9179 52.6668 54.9481 52.6216 54.9688 52.5718C54.9894 52.522 55 52.4687 55 52.4148C55 52.361 54.9894 52.3076 54.9688 52.2579C54.9481 52.2081 54.9179 52.1629 54.8798 52.1248ZM37.9199 37.9199C35.7999 40.0349 32.9899 41.1999 29.9999 41.1999C27.0099 41.1999 24.2 40.0349 22.08 37.9199C19.965 35.7999 18.8 32.9899 18.8 29.9999C18.8 27.0099 19.965 24.195 22.08 22.08C24.2 19.965 27.0099 18.8 29.9999 18.8C32.9899 18.8 35.8049 19.96 37.9199 22.08C40.0349 24.2 41.1999 27.0099 41.1999 29.9999C41.1999 32.9899 40.0349 35.8049 37.9199 37.9199Z" fill="white"/>
</svg>
