<svg width="40" height="40" viewBox="0 0 40 40" fill="none" xmlns="http://www.w3.org/2000/svg">
<rect width="40" height="40" fill="#E5E5E5"/>
<g id="Android / &#208;&#189;&#208;&#190;&#208;&#178;&#208;&#190;&#209;&#129;&#209;&#130;&#208;&#184;">
<rect width="360" height="1226" transform="translate(-205 -20)" fill="#2D2F34"/>
<g id="header_mob">
<rect width="360" height="80" transform="translate(-205 -20)" fill="url(#paint0_linear_0_1)"/>
<rect width="360" height="80" transform="translate(-205 -20)" fill="#2D2F34"/>
<g id="&#208;&#159;&#208;&#190;&#208;&#184;&#209;&#129;&#208;&#186;">
<circle id="Ellipse 10" cx="20" cy="20" r="19.5" stroke="white"/>
<path id="Vector" d="M26.9579 25.9937L22.4132 21.449C23.1185 20.5372 23.5 19.4225 23.5 18.25C23.5 16.8465 22.9522 15.5305 21.9617 14.5382C20.9712 13.546 19.6517 13 18.25 13C16.8482 13 15.5287 13.5477 14.5382 14.5382C13.546 15.5287 13 16.8465 13 18.25C13 19.6517 13.5477 20.9712 14.5382 21.9617C15.5287 22.954 16.8465 23.5 18.25 23.5C19.4225 23.5 20.5355 23.1185 21.4472 22.415L25.9919 26.9579C26.0053 26.9713 26.0211 26.9819 26.0385 26.9891C26.0559 26.9963 26.0746 27 26.0934 27C26.1123 27 26.131 26.9963 26.1484 26.9891C26.1658 26.9819 26.1816 26.9713 26.1949 26.9579L26.9579 26.1967C26.9713 26.1834 26.9819 26.1675 26.9891 26.1501C26.9963 26.1327 27 26.114 27 26.0952C27 26.0763 26.9963 26.0577 26.9891 26.0403C26.9819 26.0228 26.9713 26.007 26.9579 25.9937ZM21.022 21.022C20.28 21.7622 19.2965 22.17 18.25 22.17C17.2035 22.17 16.22 21.7622 15.478 21.022C14.7377 20.28 14.33 19.2965 14.33 18.25C14.33 17.2035 14.7377 16.2182 15.478 15.478C16.22 14.7377 17.2035 14.33 18.25 14.33C19.2965 14.33 20.2817 14.736 21.022 15.478C21.7622 16.22 22.17 17.2035 22.17 18.25C22.17 19.2965 21.7622 20.2817 21.022 21.022Z" fill="white"/>
</g>
</g>
</g>
<defs>
<linearGradient id="paint0_linear_0_1" x1="180" y1="0" x2="180" y2="80" gradientUnits="userSpaceOnUse">
<stop stop-color="#2D2F34" stop-opacity="0.6"/>
<stop offset="1" stop-color="#2D2F34" stop-opacity="0"/>
</linearGradient>
</defs>
</svg>
