<svg width="70" height="70" viewBox="0 0 70 70" fill="none" xmlns="http://www.w3.org/2000/svg">
<circle opacity="0.2" cx="35" cy="35" r="34.5" stroke="white"/>
<path fill-rule="evenodd" clip-rule="evenodd" d="M21 25C21 24.4696 21.2107 23.9609 21.5858 23.5858C21.9609 23.2107 22.4696 23 23 23H47C47.5304 23 48.0391 23.2107 48.4142 23.5858C48.7893 23.9609 49 24.4696 49 25C49 25.5304 48.7893 26.0391 48.4142 26.4142C48.0391 26.7893 47.5304 27 47 27H23C22.4696 27 21.9609 26.7893 21.5858 26.4142C21.2107 26.0391 21 25.5304 21 25ZM21 35C21 34.4696 21.2107 33.9609 21.5858 33.5858C21.9609 33.2107 22.4696 33 23 33H47C47.5304 33 48.0391 33.2107 48.4142 33.5858C48.7893 33.9609 49 34.4696 49 35C49 35.5304 48.7893 36.0391 48.4142 36.4142C48.0391 36.7893 47.5304 37 47 37H23C22.4696 37 21.9609 36.7893 21.5858 36.4142C21.2107 36.0391 21 35.5304 21 35ZM21 45C21 44.4696 21.2107 43.9609 21.5858 43.5858C21.9609 43.2107 22.4696 43 23 43H35C35.5304 43 36.0391 43.2107 36.4142 43.5858C36.7893 43.9609 37 44.4696 37 45C37 45.5304 36.7893 46.0391 36.4142 46.4142C36.0391 46.7893 35.5304 47 35 47H23C22.4696 47 21.9609 46.7893 21.5858 46.4142C21.2107 46.0391 21 45.5304 21 45Z" fill="white"/>
</svg>
